<?xml version="1.0" encoding="UTF-8"?>
<!-- Created with Inkscape (http://www.inkscape.org/) -->
<svg width="42.17991mm" height="9.366252mm" version="1.1" viewBox="0 0 42.17991 9.366252"
    xmlns="http://www.w3.org/2000/svg" xmlns:xlink="http://www.w3.org/1999/xlink">
    <defs>
        <linearGradient id="linearGradient11" x1="-4.577395" x2="28.42916" y1="34.03582"
            y2="7.692409" gradientUnits="userSpaceOnUse">
            <stop stop-color="#f900a4" offset="0" />
            <stop stop-color="#4c00f0" offset="1" />
        </linearGradient>
    </defs>
    <g fill="url(#linearGradient11)">
        <path transform="matrix(.2645833 0 0 .2645833 -65.36034 -95.45622)"
            d="m256.1112 389.3794q-2.72 0-4.76-0.84-2.04-0.88-3.2-2.4-1.12-1.52-1.12-3.56h5.88q0 1.12 0.84 1.68t2.36 0.56h1.76q1.64 0 2.52-0.56 0.92-0.56 0.92-1.6 0-1-0.72-1.44-0.72-0.48-2.2-0.64l-5.04-0.6q-2.92-0.36-4.48-2.16-1.56-1.84-1.56-4.56 0-6.68 8.56-6.68h1.88q4.04 0 6.44 1.76t2.4 4.72h-5.88q0-0.96-0.8-1.48-0.76-0.52-2.16-0.52h-1.88q-1.4 0-2.12 0.52t-0.72 1.44 0.68 1.24q0.72 0.32 2 0.48l4.8 0.6q3.24 0.4 4.88 2.28t1.64 4.96q0 3.24-2.32 5.04-2.32 1.76-6.84 1.76zm13.80002-0.4-3.32-22h4.6l1.72 12q0.2 1.52 0.32 3.24t0.2 2.88q0.08-1.16 0.2-2.88t0.4-3.24l2.12-12h4.56l2.04 12q0.28 1.52 0.44 3.28 0.16 1.72 0.24 2.88 0.08-1.16 0.16-2.88 0.08-1.76 0.32-3.28l1.8-12h4.48l-3.36 22h-6l-1.8-12.4q-0.16-1.16-0.36-2.76t-0.28-2.64q0 0.68-0.12 1.68t-0.24 2q-0.12 0.96-0.24 1.72l-1.84 12.4zm27.00001 0.4q-3.28 0-5.2-1.88-1.92-1.92-1.92-5 0-3.32 2.36-5.24t6.64-1.92h4.32v-1.4q0-1.24-0.88-1.92-0.84-0.72-2.44-0.72-1.52 0-2.44 0.6-0.88 0.6-0.96 1.76h-5.68q0.12-3.24 2.56-5.16t6.6-1.92q4.36 0 6.8 2t2.44 5.6v14.8h-5.8v-3.8q-0.4 1.96-2.12 3.08-1.68 1.12-4.28 1.12zm2.12-4.8q1.88 0 2.96-0.92 1.12-0.96 1.12-2.48v-2.24h-4.2q-1.6 0-2.48 0.8-0.84 0.76-0.84 2t0.88 2.04q0.92 0.8 2.56 0.8z"
            style="white-space:pre" />
        <path transform="matrix(.2645833 0 0 .2645833 -65.36034 -95.45622)"
            d="m314.9113 396.1794v-4.8h6.2q1.68 0 2.56-0.84 0.92-0.84 0.92-2.32v-0.84l0.04-3.28q-0.8 1.76-2.28 2.72t-3.52 0.96q-3.32 0-5.32-2.32t-2-6.28v-4q0-3.92 2-6.24 2-2.36 5.32-2.36 2.08 0 3.56 1 1.48 0.96 2.28 2.72v-3.32h5.8v21.44q0 3.6-2.48 5.68-2.44 2.08-6.68 2.08zm6.08-13.6q1.64 0 2.56-0.92 0.92-0.96 0.92-2.68v-3.6q0-1.72-0.92-2.64-0.92-0.96-2.56-0.96-1.68 0-2.6 0.96-0.88 0.92-0.88 2.64v3.6q0 1.72 0.88 2.68 0.92 0.92 2.6 0.92z"
            style="white-space:pre" />
    </g>
    <path transform="matrix(.2645833 0 0 .2645833 -65.36034 -95.45622)"
        d="m332.0613 388.9794v-22h3.6v4.2h0.08q0.28-2.12 1.8-3.36t4.08-1.24q3.44 0 5.28 2.08 1.88 2.04 1.88 5.84v1.88h-3.6v-1.88q0-4.8-4.68-4.8-2.36 0-3.6 1.36t-1.24 3.92v14z"
        style="white-space:pre" fill="#fff" />
    <path transform="matrix(.2645833 0 0 .2645833 -65.36034 -95.45622)"
        d="m358.0513 389.3794q-3.88 0-6.28-2.32-2.36-2.36-2.36-6.48v-5.2q0-4.12 2.36-6.44 2.4-2.36 6.28-2.36 2.6 0 4.52 1.04 1.96 1.04 3.04 2.92t1.08 4.44v3.92h-13.76v2.08q0 2.44 1.4 3.88 1.4 1.4 3.72 1.4 2 0 3.28-0.76 1.32-0.8 1.6-2.12h3.6q-0.36 2.76-2.68 4.4-2.32 1.6-5.8 1.6zm-5.12-13.28h10.24v-1.12q0-2.6-1.36-4-1.32-1.44-3.76-1.44t-3.8 1.44q-1.32 1.4-1.32 4zm24.92002 13.28q-3.88 0-6.28-2.32-2.36-2.36-2.36-6.48v-5.2q0-4.12 2.36-6.44 2.4-2.36 6.28-2.36 2.6 0 4.52 1.04 1.96 1.04 3.04 2.92t1.08 4.44v3.92h-13.76v2.08q0 2.44 1.4 3.88 1.4 1.4 3.72 1.4 2 0 3.28-0.76 1.32-0.8 1.6-2.12h3.6q-0.36 2.76-2.68 4.4-2.32 1.6-5.8 1.6zm-5.12-13.28h10.24v-1.12q0-2.6-1.36-4-1.32-1.44-3.76-1.44t-3.8 1.44q-1.32 1.4-1.32 4zm27.12001 12.88q-2.72 0-4.36-1.56-1.64-1.6-1.64-4.24v-12.92h-6.32v-3.28h6.32v-6.2h3.6v6.2h9v3.28h-9v12.92q0 1.12 0.64 1.84 0.68 0.68 1.76 0.68h6.4v3.28z"
        style="white-space:pre" fill="#fff" />
</svg>